<?xml version="1.0" encoding="utf-8"?>
<!-- Generator: Adobe Illustrator 28.0.0, SVG Export Plug-In . SVG Version: 6.00 Build 0)  -->
<svg version="1.1" id="Ebene_2_00000031917799082315890870000009194863390827233921_"
	 xmlns="http://www.w3.org/2000/svg" xmlns:xlink="http://www.w3.org/1999/xlink" x="0px" y="0px" viewBox="0 0 231.2 50"
	 style="enable-background:new 0 0 231.2 50;" xml:space="preserve">
<style type="text/css">
	.st0{fill:none;}
	.st1{clip-path:url(#SVGID_00000049224119242551873770000010916356848487583922_);}
	.st2{fill:#FFFFFF;}
</style>
<rect class="st0" width="231.2" height="50"/>
<g>
	<g>
		<defs>
			<rect id="SVGID_1_" width="231.2" height="47.9"/>
		</defs>
		<clipPath id="SVGID_00000113342134471925990890000013061436881265195197_">
			<use xlink:href="#SVGID_1_"  style="overflow:visible;"/>
		</clipPath>
		<g style="clip-path:url(#SVGID_00000113342134471925990890000013061436881265195197_);">
			<g>
				<polygon class="st2" points="14.1,40 7.8,41.5 0,7.8 33.7,0 35.5,8 33.8,8 32.4,2 2,9.1 9.1,39.4 14.1,38.3 				"/>
				<polygon class="st2" points="57.3,42.2 71.2,42.2 71.2,47.3 51.4,47.3 51.4,11.4 57.3,11.4 				"/>
				<path class="st2" d="M87.9,32.8v-5h13.5v17c-3.7,2-7.9,3-12.5,3c-5.3,0-9.6-1.7-12.9-4.9c-3.3-3.3-4.9-7.5-4.9-13.1
					s1.8-10.1,5.4-13.7s8.1-5.3,13.7-5.3c4,0,7.3,0.6,10,1.7l0,0L99,18c-2.5-1.3-5.3-2-8.6-2c-3.8,0-6.9,1.3-9.4,3.8
					c-2.4,2.5-3.7,5.7-3.7,9.8s1,7.3,3.1,9.7s4.9,3.5,8.5,3.5c2.5,0,4.6-0.5,6.4-1.4v-8.5L87.9,32.8L87.9,32.8z"/>
				<path class="st2" d="M128.1,34.4c0.5,1.1,0.7,2.3,0.7,3.6c0,1.8-0.4,3.3-1.1,4.6c-0.7,1.3-1.7,2.3-3,3c-1.2,0.8-2.7,1.4-4.3,1.7
					c-1.6,0.4-3.3,0.5-5.1,0.5c-0.6,0-1.3,0-2.2-0.1c-0.9-0.1-1.8-0.2-2.7-0.4c-0.9-0.2-1.8-0.4-2.6-0.6c-0.8-0.2-1.5-0.5-2-0.8l0,0
					l1.2-5.2c0.2,0.2,0.5,0.3,0.8,0.4c0.8,0.4,1.6,0.7,2.4,1s1.7,0.5,2.5,0.6c0.9,0.2,1.6,0.2,2.3,0.2c2.5,0,4.4-0.4,5.6-1.2
					s1.8-2,1.8-3.6c0-0.9-0.2-1.6-0.6-2.2c-0.4-0.6-1-1.2-1.7-1.7s-1.6-1-2.6-1.5s-5.5-2.8-6.6-3.5c-1-0.7-2-1.4-2.7-2.2
					c-0.8-0.8-1.4-1.7-1.8-2.7s-0.7-2.2-0.7-3.6c0-1.7,0.4-3.1,1.1-4.4c0.8-1.2,1.8-2.3,3-3.1s2.6-1.4,4.2-1.8
					c1.6-0.4,3.2-0.6,4.8-0.6c3.7,0,6.5,0.4,8.2,1.3l-1.2,5.1c-1.8-1-4-1.5-6.7-1.5c-0.9,0-1.8,0.1-2.6,0.2
					c-0.9,0.2-1.7,0.4-2.3,0.8s-1.3,0.9-1.7,1.5s-0.6,1.3-0.6,2.2c0,0.8,0.2,1.5,0.5,2.1s0.8,1.1,1.5,1.6c0.6,0.5,1.4,1,2.3,1.4
					c0.9,0.5,5.6,2.8,6.7,3.5s2.1,1.5,2.9,2.4C126.9,32.4,127.6,33.3,128.1,34.4L128.1,34.4z"/>
				<path class="st2" d="M17.5,47.3h9.9c6.2,0,11.1-1.7,14.7-5c3.7-3.4,5.5-7.8,5.5-13.3c0-11.6-6.6-17.5-19.8-17.5H17.5V47.3
					L17.5,47.3z M28.3,16.5c8.7,0,13,4.2,13,12.6c0,4.2-1.2,7.4-3.5,9.7s-5.6,3.4-9.8,3.4h-4.7V16.5C23.4,16.5,28.3,16.5,28.3,16.5z
					"/>
				<g>
					<path class="st2" d="M146.7,33.3h2.2c1.3,0,2.4-0.4,3.2-1.1c0.8-0.7,1.2-1.7,1.2-2.9c0-2.6-1.4-3.8-4.3-3.8h-2.3L146.7,33.3
						L146.7,33.3z M148,26.5h1.1c1.9,0,2.8,0.9,2.8,2.8c0,0.9-0.3,1.6-0.8,2.1s-1.2,0.8-2.1,0.8h-1V26.5L148,26.5z"/>
					<path class="st2" d="M157.9,28.9v-1.2c-0.1-0.1-0.3-0.1-0.5-0.1c-0.3,0-0.6,0.1-0.9,0.3s-0.4,0.5-0.6,0.9l0,0v-1.2h-1.3v5.6
						h1.3v-2.7c0-0.6,0.1-1,0.4-1.4c0.3-0.3,0.6-0.5,0.9-0.5C157.5,28.7,157.7,28.8,157.9,28.9L157.9,28.9z"/>
					<path class="st2" d="M163.6,30.8v-0.5c0-0.9-0.2-1.6-0.6-2.1c-0.4-0.5-1-0.7-1.8-0.7s-1.4,0.3-1.9,0.8
						c-0.5,0.6-0.8,1.3-0.8,2.1c0,0.9,0.2,1.6,0.7,2.1c0.5,0.5,1.1,0.8,1.9,0.8c0.8,0,1.5-0.2,2-0.5v-1c-0.5,0.4-1,0.5-1.6,0.5
						c-0.5,0-1-0.1-1.3-0.4c-0.3-0.3-0.5-0.7-0.5-1.2L163.6,30.8L163.6,30.8z M159.7,29.9c0.1-0.4,0.2-0.8,0.5-1
						c0.3-0.3,0.6-0.4,0.9-0.4s0.7,0.1,0.9,0.4s0.3,0.6,0.3,1.1h-2.6V29.9z"/>
					<path class="st2" d="M164.4,33.1c0.4,0.2,1,0.3,1.6,0.3c0.3,0,0.6,0,0.9-0.1c0.3-0.1,0.5-0.2,0.8-0.3c0.2-0.1,0.4-0.3,0.5-0.5
						s0.2-0.5,0.2-0.7s0-0.4-0.1-0.6s-0.2-0.3-0.3-0.4s-0.3-0.2-0.5-0.3c-0.2-0.1-0.4-0.2-0.6-0.3c-0.2-0.1-0.3-0.1-0.5-0.2
						c-0.1-0.1-0.3-0.1-0.4-0.2c-0.1-0.1-0.2-0.1-0.2-0.2c-0.1-0.1-0.1-0.2-0.1-0.3c0-0.1,0-0.2,0.1-0.3c0.1-0.1,0.1-0.2,0.2-0.2
						c0.1-0.1,0.2-0.1,0.3-0.1s0.3,0,0.4,0c0.5,0,1,0.1,1.4,0.4V28c-0.4-0.2-0.9-0.2-1.4-0.2c-0.3,0-0.6,0-0.8,0.1
						c-0.3,0.1-0.5,0.2-0.7,0.3c-0.2,0.1-0.4,0.3-0.5,0.5s-0.2,0.4-0.2,0.7c0,0.2,0,0.4,0.1,0.6s0.2,0.3,0.3,0.4s0.3,0.2,0.5,0.3
						c0.2,0.1,0.4,0.2,0.6,0.3c0.2,0.1,0.4,0.1,0.5,0.2s0.3,0.1,0.4,0.2c0.1,0.1,0.2,0.1,0.3,0.2s0.1,0.2,0.1,0.3
						c0,0.5-0.4,0.7-1.1,0.7c-0.6,0-1.1-0.2-1.6-0.5L164.4,33.1L164.4,33.1z"/>
					<path class="st2" d="M174.7,33.3V25h-1.3v3.5l0,0c-0.3-0.6-0.9-0.9-1.6-0.9s-1.4,0.3-1.8,0.8c-0.5,0.6-0.7,1.3-0.7,2.2
						c0,0.9,0.2,1.5,0.6,2c0.4,0.5,1,0.8,1.7,0.8c0.8,0,1.5-0.4,1.9-1.1l0,0v1H174.7L174.7,33.3z M173.5,30.7c0,0.5-0.1,0.9-0.4,1.2
						c-0.3,0.3-0.6,0.5-1.1,0.5s-0.8-0.2-1.1-0.5s-0.4-0.8-0.4-1.3c0-0.6,0.1-1.1,0.4-1.5s0.6-0.5,1.1-0.5c0.4,0,0.7,0.1,1,0.4
						s0.4,0.6,0.4,1L173.5,30.7L173.5,30.7z"/>
					<path class="st2" d="M181,30.8v-0.5c0-0.9-0.2-1.6-0.6-2.1c-0.4-0.5-1-0.7-1.8-0.7s-1.4,0.3-1.9,0.8c-0.5,0.6-0.8,1.3-0.8,2.1
						c0,0.9,0.2,1.6,0.7,2.1c0.5,0.5,1.1,0.8,1.9,0.8s1.5-0.2,2-0.5v-1c-0.5,0.4-1,0.5-1.6,0.5c-0.5,0-1-0.1-1.3-0.4
						c-0.3-0.3-0.5-0.7-0.5-1.2L181,30.8L181,30.8z M179.8,29.9h-2.6c0.1-0.4,0.2-0.8,0.5-1c0.3-0.3,0.6-0.4,0.9-0.4
						c0.4,0,0.7,0.1,0.9,0.4C179.7,29.1,179.8,29.5,179.8,29.9L179.8,29.9z"/>
					<path class="st2" d="M187.2,33.3v-3.4c0-0.7-0.2-1.3-0.5-1.7c-0.3-0.4-0.8-0.6-1.4-0.6c-0.8,0-1.4,0.4-1.8,1.1l0,0v-0.9h-1.3
						v5.6h1.3v-3.2c0-0.4,0.1-0.8,0.4-1.1c0.2-0.3,0.6-0.4,1-0.4c0.7,0,1.1,0.5,1.1,1.6v3.2L187.2,33.3L187.2,33.3z"/>
					<path class="st2" d="M196.4,32.2h-3v-6.7h-1.3v7.8h4.3V32.2z"/>
					<path class="st2" d="M202.2,30.8v-0.5c0-0.9-0.2-1.6-0.6-2.1c-0.4-0.5-1-0.7-1.8-0.7s-1.4,0.3-1.9,0.8
						c-0.5,0.6-0.8,1.3-0.8,2.1c0,0.9,0.2,1.6,0.7,2.1c0.5,0.5,1.1,0.8,1.9,0.8c0.8,0,1.5-0.2,2-0.5v-1c-0.5,0.4-1,0.5-1.6,0.5
						c-0.5,0-1-0.1-1.3-0.4c-0.3-0.3-0.5-0.7-0.5-1.2L202.2,30.8L202.2,30.8z M200.9,29.9h-2.6c0.1-0.4,0.2-0.8,0.5-1
						c0.3-0.3,0.6-0.4,0.9-0.4s0.7,0.1,0.9,0.4C200.8,29.1,200.9,29.5,200.9,29.9L200.9,29.9z"/>
					<path class="st2" d="M204.5,26.3c0.2-0.1,0.2-0.3,0.2-0.5s-0.1-0.4-0.2-0.5c-0.2-0.1-0.3-0.2-0.5-0.2s-0.4,0.1-0.5,0.2
						s-0.2,0.3-0.2,0.5s0.1,0.4,0.2,0.5c0.2,0.1,0.3,0.2,0.5,0.2S204.4,26.4,204.5,26.3z M204.6,27.7h-0.5h-0.8v1.2v4.4h1.3v-2.8
						V27.7z"/>
					<path class="st2" d="M207.4,32.5c0.4,0.6,0.9,0.9,1.7,0.9s1.4-0.3,1.8-0.8c0.4-0.6,0.7-1.3,0.7-2.2c0-0.8-0.2-1.5-0.6-2
						c-0.4-0.5-1-0.8-1.7-0.8c-0.8,0-1.5,0.4-1.9,1.1l0,0V25h-1.3v8.3h1.3V32.5L207.4,32.5L207.4,32.5z M207.4,30.2
						c0-0.5,0.1-0.9,0.4-1.2s0.6-0.5,1.1-0.5c0.4,0,0.8,0.2,1,0.5s0.4,0.7,0.4,1.3c0,0.7-0.1,1.2-0.4,1.5c-0.3,0.4-0.6,0.6-1.1,0.6
						c-0.4,0-0.7-0.1-1-0.4c-0.3-0.3-0.4-0.6-0.4-1V30.2L207.4,30.2z"/>
					<path class="st2" d="M217.8,33.3v-3.4c0-0.7-0.2-1.3-0.5-1.7c-0.3-0.4-0.8-0.6-1.4-0.6c-0.8,0-1.4,0.4-1.8,1.1l0,0v-0.9h-1.3
						v5.6h1.3v-3.2c0-0.4,0.1-0.8,0.4-1.1c0.2-0.3,0.6-0.4,1-0.4c0.7,0,1.1,0.5,1.1,1.6v3.2L217.8,33.3L217.8,33.3z"/>
					<path class="st2" d="M220.5,26.3c0.2-0.1,0.2-0.3,0.2-0.5s-0.1-0.4-0.2-0.5c-0.2-0.1-0.3-0.2-0.5-0.2s-0.4,0.1-0.5,0.2
						s-0.2,0.3-0.2,0.5s0.1,0.4,0.2,0.5c0.1,0.1,0.3,0.2,0.5,0.2S220.3,26.4,220.5,26.3z M220.6,27.7h-0.7h-0.6V30v3.3h1.3v-2.1
						V27.7z"/>
					<path class="st2" d="M226.3,28.2v-0.5h-4.5v1h2.8l-3.1,4.1v0.5h4.8v-1h-3L226.3,28.2L226.3,28.2z"/>
					<path class="st2" d="M153.2,46.7V43h-2.9v1.1h1.7V46c-0.4,0.2-0.9,0.3-1.4,0.3c-0.8,0-1.4-0.3-1.9-0.8s-0.7-1.3-0.7-2.1
						c0-0.9,0.3-1.6,0.8-2.1c0.5-0.6,1.2-0.8,2.1-0.8s1.5,0.2,2.1,0.6v-1.3c-0.6-0.3-1.3-0.4-2.2-0.4c-1.2,0-2.2,0.4-3,1.2
						s-1.2,1.8-1.2,3s0.4,2.1,1.1,2.9c0.7,0.7,1.7,1.1,2.8,1.1C151.4,47.4,152.4,47.2,153.2,46.7L153.2,46.7z"/>
					<path class="st2" d="M158,42.9v-1.2c-0.1-0.1-0.3-0.1-0.5-0.1c-0.3,0-0.6,0.1-0.9,0.3c-0.3,0.2-0.4,0.5-0.6,0.9l0,0v-1.2h-1.3
						v5.6h1.3v-2.7c0-0.6,0.1-1,0.4-1.4c0.3-0.3,0.6-0.5,0.9-0.5C157.6,42.7,157.8,42.7,158,42.9L158,42.9z"/>
					<path class="st2" d="M163.3,47.3v-3.6c0-1.4-0.7-2.1-2.1-2.1c-0.8,0-1.5,0.2-2,0.5v1.1c0.5-0.5,1.1-0.7,1.8-0.7
						c0.8,0,1.1,0.4,1.1,1.2l-1.7,0.2c-1.2,0.2-1.8,0.8-1.8,1.8c0,0.5,0.2,0.9,0.5,1.2s0.7,0.4,1.3,0.4c0.7,0,1.3-0.3,1.7-1l0,0v0.9
						L163.3,47.3L163.3,47.3z M162.1,44.5V45c0,0.4-0.1,0.8-0.4,1c-0.3,0.3-0.6,0.4-1,0.4c-0.3,0-0.5-0.1-0.7-0.2
						c-0.2-0.2-0.3-0.3-0.3-0.6s0.1-0.6,0.3-0.7c0.2-0.1,0.5-0.2,0.8-0.3L162.1,44.5L162.1,44.5z"/>
					<path class="st2" d="M170.1,39h-1.3v3.5l0,0c-0.3-0.6-0.9-0.9-1.6-0.9s-1.4,0.3-1.8,0.8c-0.5,0.6-0.7,1.3-0.7,2.2
						s0.2,1.5,0.6,2s1,0.8,1.7,0.8c0.9,0,1.5-0.4,1.9-1.1l0,0v1h1.3L170.1,39L170.1,39z M168.8,44.7c0,0.5-0.1,0.9-0.4,1.2
						c-0.3,0.3-0.6,0.5-1.1,0.5s-0.8-0.2-1.1-0.5s-0.4-0.8-0.4-1.3c0-0.6,0.1-1.1,0.4-1.5c0.3-0.4,0.6-0.5,1.1-0.5
						c0.4,0,0.7,0.1,1,0.4c0.3,0.3,0.4,0.6,0.4,1L168.8,44.7L168.8,44.7z"/>
					<path class="st2" d="M176.7,47.3v-5.6h-1.3v3.2c0,0.4-0.1,0.8-0.4,1.1c-0.2,0.3-0.6,0.4-0.9,0.4c-0.8,0-1.2-0.5-1.2-1.5v-3.2
						h-1.3V45c0,1.6,0.7,2.4,2,2.4c0.8,0,1.4-0.3,1.7-1l0,0v0.9L176.7,47.3L176.7,47.3z"/>
					<path class="st2" d="M182.7,47.3v-3.6c0-1.4-0.7-2.1-2.1-2.1c-0.8,0-1.5,0.2-2,0.5v1.1c0.5-0.5,1.1-0.7,1.8-0.7
						c0.8,0,1.1,0.4,1.1,1.2l-1.7,0.2c-1.2,0.2-1.8,0.8-1.8,1.8c0,0.5,0.2,0.9,0.5,1.2s0.7,0.4,1.3,0.4c0.7,0,1.3-0.3,1.7-1l0,0v0.9
						L182.7,47.3L182.7,47.3z M181.5,44.5V45c0,0.4-0.1,0.8-0.4,1c-0.3,0.3-0.6,0.4-1,0.4c-0.3,0-0.5-0.1-0.7-0.2
						c-0.2-0.2-0.3-0.3-0.3-0.6s0.1-0.6,0.3-0.7c0.2-0.1,0.5-0.2,0.8-0.3L181.5,44.5L181.5,44.5z"/>
					<path class="st2" d="M187.3,47.2v-1c-0.2,0.1-0.3,0.2-0.6,0.2s-0.5-0.1-0.6-0.2c-0.1-0.1-0.2-0.4-0.2-0.7v-2.8h1.3v-1H186V40
						l-1.3,0.4v1.3h-0.9v1h0.9v3.2c0,1,0.5,1.6,1.6,1.6C186.7,47.4,187.1,47.3,187.3,47.2L187.3,47.2z"/>
					<path class="st2" d="M193.2,44.8v-0.5c0-0.9-0.2-1.6-0.6-2.1c-0.4-0.5-1-0.7-1.8-0.7s-1.4,0.3-1.9,0.8
						c-0.5,0.6-0.8,1.3-0.8,2.1c0,0.9,0.2,1.6,0.7,2.1s1.1,0.8,1.9,0.8c0.8,0,1.5-0.2,2-0.5v-1c-0.5,0.4-1,0.5-1.6,0.5
						c-0.5,0-1-0.1-1.3-0.4c-0.3-0.3-0.5-0.7-0.5-1.2L193.2,44.8L193.2,44.8z M192,43.9h-2.6c0.1-0.4,0.2-0.8,0.5-1
						c0.3-0.3,0.6-0.4,0.9-0.4c0.4,0,0.7,0.1,0.9,0.4C191.9,43.1,192,43.4,192,43.9L192,43.9z"/>
					<path class="st2" d="M197.8,46.9c0.1,0.1,0.3,0.1,0.4,0.2c0.2,0.1,0.4,0.1,0.6,0.1c0.2,0,0.4,0.1,0.6,0.1c0.2,0,0.4,0,0.5,0
						c0.4,0,0.8,0,1.1-0.1s0.7-0.2,0.9-0.4c0.3-0.2,0.5-0.4,0.6-0.7s0.2-0.6,0.2-1c0-0.3-0.1-0.6-0.2-0.8c-0.1-0.2-0.3-0.4-0.4-0.6
						c-0.2-0.2-0.4-0.4-0.6-0.5c-0.2-0.2-0.5-0.3-0.8-0.4c-0.3-0.1-0.5-0.2-0.7-0.3s-0.4-0.2-0.5-0.3s-0.2-0.2-0.3-0.3
						s-0.1-0.3-0.1-0.5s0-0.3,0.1-0.5c0.1-0.1,0.2-0.2,0.4-0.3s0.3-0.1,0.5-0.2c0.2,0,0.4-0.1,0.6-0.1c0.7,0,1.3,0.2,1.7,0.5v-1.3
						c-0.4-0.2-1-0.3-1.8-0.3c-0.4,0-0.7,0-1.1,0.1c-0.3,0.1-0.7,0.2-0.9,0.4c-0.3,0.2-0.5,0.4-0.7,0.7s-0.2,0.6-0.2,1
						c0,0.3,0,0.6,0.1,0.8s0.2,0.4,0.4,0.6s0.4,0.3,0.6,0.5c0.2,0.1,0.5,0.3,0.7,0.4c0.2,0.1,0.5,0.2,0.7,0.3s0.4,0.2,0.6,0.3
						c0.2,0.1,0.3,0.2,0.4,0.4c0.1,0.1,0.1,0.3,0.1,0.5c0,0.3-0.1,0.6-0.4,0.8c-0.3,0.2-0.7,0.3-1.2,0.3c-0.2,0-0.3,0-0.5,0
						s-0.4-0.1-0.6-0.1c-0.2-0.1-0.4-0.1-0.5-0.2c-0.2-0.1-0.3-0.2-0.4-0.3L197.8,46.9L197.8,46.9z"/>
					<path class="st2" d="M208.2,47v-1.1c-0.4,0.3-0.8,0.5-1.3,0.5s-1-0.2-1.3-0.5s-0.5-0.8-0.5-1.4c0-0.6,0.2-1.1,0.5-1.4
						s0.8-0.5,1.3-0.5c0.4,0,0.9,0.1,1.2,0.4v-1.2c-0.4-0.2-0.8-0.3-1.4-0.3c-0.9,0-1.7,0.3-2.2,0.8c-0.5,0.6-0.8,1.3-0.8,2.2
						c0,0.8,0.3,1.5,0.8,2s1.2,0.8,2,0.8C207.2,47.4,207.8,47.3,208.2,47L208.2,47z"/>
					<path class="st2" d="M214.6,47.3v-3.4c0-1.5-0.6-2.3-1.9-2.3c-0.8,0-1.4,0.4-1.8,1.1l0,0V39h-1.3v8.3h1.3v-3
						c0-0.5,0.1-0.9,0.4-1.2s0.6-0.5,0.9-0.5c0.7,0,1.1,0.6,1.1,1.7v3.1L214.6,47.3L214.6,47.3z"/>
					<path class="st2" d="M218.7,47.4c0.9,0,1.6-0.3,2.1-0.8s0.8-1.2,0.8-2.1c0-0.9-0.2-1.6-0.7-2.1s-1.1-0.8-2-0.8
						s-1.6,0.3-2.2,0.8c-0.5,0.5-0.8,1.3-0.8,2.2s0.3,1.6,0.8,2.1C217.2,47.1,217.9,47.4,218.7,47.4L218.7,47.4z M218.8,42.5
						c0.5,0,0.9,0.2,1.2,0.5s0.4,0.8,0.4,1.4s-0.1,1.1-0.4,1.4c-0.3,0.3-0.7,0.5-1.2,0.5s-0.9-0.2-1.2-0.5s-0.4-0.8-0.4-1.4
						s0.1-1.1,0.4-1.4C217.9,42.7,218.3,42.5,218.8,42.5L218.8,42.5z"/>
					<path class="st2" d="M225.6,47.4c0.9,0,1.6-0.3,2.1-0.8s0.8-1.2,0.8-2.1c0-0.9-0.2-1.6-0.7-2.1s-1.1-0.8-2-0.8
						s-1.6,0.3-2.2,0.8c-0.5,0.5-0.8,1.3-0.8,2.2s0.3,1.6,0.8,2.1S224.7,47.4,225.6,47.4L225.6,47.4z M225.6,42.5
						c0.5,0,0.9,0.2,1.2,0.5s0.4,0.8,0.4,1.4s-0.1,1.1-0.4,1.4c-0.3,0.3-0.7,0.5-1.2,0.5s-0.9-0.2-1.2-0.5S224,45,224,44.4
						s0.1-1.1,0.4-1.4C224.8,42.7,225.1,42.5,225.6,42.5L225.6,42.5z"/>
					<path class="st2" d="M231.2,39h-0.5H230v4.3v4h1.3v-4.8V39H231.2z"/>
				</g>
			</g>
		</g>
	</g>
</g>
</svg>
