<?xml version="1.0" encoding="utf-8"?>
<!-- Generator: Adobe Illustrator 26.3.1, SVG Export Plug-In . SVG Version: 6.00 Build 0)  -->
<svg version="1.1" id="Ebene_1" xmlns="http://www.w3.org/2000/svg" xmlns:xlink="http://www.w3.org/1999/xlink" x="0px" y="0px"
	 viewBox="0 0 650 200" style="enable-background:new 0 0 650 200;" xml:space="preserve">
<style type="text/css">
	.st0{fill:#FFFFFF;}
	.st1{fill:#959797;}
	.st2{fill:#0970B9;}
	.st3{fill:#5A5A5A;}
</style>
<g>
	<rect class="st0" width="650" height="200"/>
	<g>
		<polygon class="st1" points="68.6,123.9 56.7,126.6 40.2,54.9 111.9,38.3 115.2,52.5 119.3,52.5 114.9,33.5 35.3,51.9 53.7,131.4 
			68.6,128 		"/>
		<polygon class="st2" points="170.8,60.5 156.7,60.5 156.7,145.1 203.6,145.1 203.6,133.3 170.8,133.3 		"/>
		<path class="st2" d="M243.1,111h17.8v20.1c-4.2,2.2-9.3,3.4-15.1,3.4c-8.5,0-15.2-2.8-20.2-8.3c-5-5.6-7.4-13.2-7.4-22.9
			c0-9.4,2.9-17.1,8.6-23.1c5.8-5.9,13.2-8.9,22.2-8.9c7.7,0,14.4,1.6,20.3,4.7l2.9-12.7v0c-6.4-2.8-14.3-4.1-23.7-4.1
			c-13.1,0-23.8,4.2-32.3,12.6c-8.5,8.4-12.7,19.2-12.7,32.3c0,12.8,3.9,23.1,11.6,30.9c7.8,7.8,17.9,11.7,30.4,11.7
			c10.8,0,20.6-2.4,29.4-7.2V99.2h-31.8V111z"/>
		<path class="st2" d="M338,114.7c-1.2-2.5-2.7-4.8-4.7-6.8c-2-2-4.3-3.9-6.9-5.6c-2.6-1.7-13.8-7.3-15.9-8.4
			c-2.2-1.1-4-2.2-5.5-3.3c-1.5-1.1-2.7-2.4-3.5-3.8c-0.8-1.4-1.2-3-1.2-4.9c0-2,0.5-3.7,1.5-5.1c1-1.4,2.4-2.6,4-3.5
			c1.6-0.9,3.5-1.6,5.5-1.9c2.1-0.4,4.1-0.6,6.2-0.6c6.2,0,11.4,1.2,15.7,3.5l2.8-12.2c-4.1-2-10.5-3-19.4-3
			c-3.9,0-7.7,0.5-11.4,1.4c-3.7,0.9-7.1,2.3-10,4.2c-2.9,1.9-5.3,4.3-7.1,7.3c-1.8,2.9-2.7,6.4-2.7,10.4c0,3.2,0.5,6,1.6,8.4
			c1,2.4,2.5,4.6,4.3,6.5c1.8,1.9,4,3.7,6.5,5.2c2.5,1.6,13.2,7.1,15.5,8.2c2.3,1.1,4.4,2.3,6.1,3.5c1.7,1.2,3.1,2.6,4,4
			c1,1.5,1.4,3.2,1.4,5.2c0,3.7-1.4,6.6-4.3,8.6c-2.9,2-7.3,3-13.2,3c-1.7,0-3.5-0.2-5.5-0.5c-2-0.4-4-0.9-6-1.5
			c-2-0.6-3.9-1.4-5.7-2.4c-0.6-0.3-1.2-0.7-1.8-1l-2.8,12.3v0c1.2,0.7,2.7,1.4,4.7,2c1.9,0.6,4,1.1,6.1,1.5
			c2.2,0.4,4.3,0.7,6.3,0.9c2.1,0.2,3.8,0.3,5.2,0.3c4.2,0,8.3-0.4,12.1-1.2c3.8-0.8,7.2-2.2,10.1-4c2.9-1.8,5.3-4.2,7-7.2
			c1.7-3,2.6-6.6,2.6-10.9C339.7,120.1,339.2,117.2,338,114.7z"/>
		<path class="st2" d="M76.6,145.1V60.5H101c31.2,0,46.8,13.8,46.8,41.3c0,13.1-4.3,23.6-13,31.5c-8.7,7.9-20.3,11.9-34.8,11.9H76.6
			z M90.6,72.4v60.8h11.2c9.9,0,17.6-2.7,23-8.1c5.5-5.4,8.2-13.1,8.2-23c0-19.8-10.2-29.7-30.7-29.7H90.6z"/>
		<g>
			<path class="st3" d="M382,112.1V93.6h5.3c6.8,0,10.2,3,10.2,9c0,2.9-0.9,5.2-2.8,6.9c-1.9,1.7-4.4,2.6-7.6,2.6H382z M385.1,96.2
				v13.3h2.5c2.2,0,3.8-0.6,5-1.8c1.2-1.2,1.8-2.9,1.8-5c0-4.3-2.2-6.5-6.7-6.5H385.1z"/>
			<path class="st3" d="M408.4,101.7c-0.4-0.3-0.9-0.4-1.6-0.4c-0.9,0-1.6,0.4-2.2,1.2c-0.6,0.8-0.9,1.9-0.9,3.3v6.3h-3V98.9h3v2.7
				h0.1c0.3-0.9,0.7-1.7,1.4-2.2c0.6-0.5,1.3-0.8,2-0.8c0.5,0,1,0.1,1.2,0.2V101.7z"/>
			<path class="st3" d="M421.7,106.3h-9c0,1.2,0.4,2.2,1.1,2.8c0.7,0.7,1.7,1,3,1c1.4,0,2.7-0.4,3.9-1.3v2.4
				c-1.2,0.8-2.8,1.1-4.8,1.1c-1.9,0-3.5-0.6-4.6-1.8c-1.1-1.2-1.7-2.9-1.7-5.1c0-2.1,0.6-3.7,1.8-5c1.2-1.3,2.7-1.9,4.5-1.9
				c1.8,0,3.2,0.6,4.2,1.7c1,1.2,1.5,2.8,1.5,4.8V106.3z M418.8,104.2c0-1.1-0.3-1.9-0.8-2.5c-0.5-0.6-1.2-0.9-2.1-0.9
				c-0.9,0-1.6,0.3-2.2,0.9c-0.6,0.6-1,1.5-1.1,2.5H418.8z"/>
			<path class="st3" d="M423.9,111.7v-2.8c1.1,0.9,2.4,1.3,3.7,1.3c1.8,0,2.7-0.5,2.7-1.6c0-0.3-0.1-0.6-0.2-0.8s-0.4-0.4-0.6-0.6
				c-0.3-0.2-0.6-0.3-0.9-0.4c-0.4-0.1-0.8-0.3-1.2-0.4c-0.5-0.2-1-0.4-1.5-0.7c-0.4-0.2-0.8-0.5-1.1-0.8c-0.3-0.3-0.5-0.7-0.7-1
				c-0.1-0.4-0.2-0.8-0.2-1.4c0-0.6,0.2-1.2,0.5-1.7c0.3-0.5,0.7-0.9,1.2-1.2c0.5-0.3,1.1-0.6,1.7-0.7c0.6-0.2,1.3-0.3,2-0.3
				c1.2,0,2.3,0.2,3.3,0.6v2.6c-0.9-0.6-2-1-3.2-1c-0.4,0-0.7,0-1,0.1c-0.3,0.1-0.6,0.2-0.8,0.3c-0.2,0.1-0.4,0.3-0.5,0.5
				c-0.1,0.2-0.2,0.4-0.2,0.6c0,0.3,0.1,0.5,0.2,0.7c0.1,0.2,0.3,0.4,0.5,0.5c0.2,0.2,0.5,0.3,0.9,0.4c0.3,0.1,0.7,0.3,1.1,0.4
				c0.6,0.2,1.1,0.5,1.5,0.7c0.5,0.2,0.8,0.5,1.2,0.8c0.3,0.3,0.6,0.7,0.7,1.1c0.2,0.4,0.3,0.9,0.3,1.4c0,0.7-0.2,1.3-0.5,1.8
				c-0.3,0.5-0.7,0.9-1.2,1.2c-0.5,0.3-1.1,0.6-1.8,0.7c-0.7,0.2-1.4,0.2-2.1,0.2C426.2,112.4,424.9,112.2,423.9,111.7z"/>
			<path class="st3" d="M448.1,112.1h-3v-2.2H445c-1,1.7-2.4,2.6-4.5,2.6c-1.6,0-2.9-0.6-3.9-1.8c-1-1.2-1.5-2.8-1.5-4.8
				c0-2.2,0.5-3.9,1.6-5.3c1.1-1.3,2.5-2,4.3-2c1.8,0,3.1,0.7,3.9,2.1h0.1v-8.2h3V112.1z M445.1,106.1v-1.7c0-0.9-0.3-1.7-0.9-2.4
				c-0.6-0.7-1.4-1-2.3-1c-1.1,0-2,0.4-2.6,1.3c-0.6,0.8-1,2-1,3.5c0,1.3,0.3,2.4,0.9,3.2c0.6,0.8,1.4,1.2,2.5,1.2
				c1,0,1.9-0.4,2.5-1.1C444.8,108.2,445.1,107.2,445.1,106.1z"/>
			<path class="st3" d="M463.1,106.3h-9c0,1.2,0.4,2.2,1.1,2.8c0.7,0.7,1.7,1,3,1c1.4,0,2.7-0.4,3.9-1.3v2.4
				c-1.2,0.8-2.8,1.1-4.8,1.1c-1.9,0-3.5-0.6-4.6-1.8c-1.1-1.2-1.7-2.9-1.7-5.1c0-2.1,0.6-3.7,1.8-5c1.2-1.3,2.7-1.9,4.5-1.9
				c1.8,0,3.2,0.6,4.2,1.7c1,1.2,1.5,2.8,1.5,4.8V106.3z M460.2,104.2c0-1.1-0.3-1.9-0.8-2.5c-0.5-0.6-1.2-0.9-2.1-0.9
				c-0.9,0-1.6,0.3-2.2,0.9c-0.6,0.6-1,1.5-1.1,2.5H460.2z"/>
			<path class="st3" d="M477.7,112.1h-3v-7.5c0-2.5-0.9-3.7-2.6-3.7c-0.9,0-1.7,0.3-2.3,1c-0.6,0.7-0.9,1.5-0.9,2.6v7.5h-3V98.9h3
				v2.2h0.1c1-1.7,2.4-2.5,4.3-2.5c1.4,0,2.5,0.5,3.3,1.4c0.8,0.9,1.1,2.3,1.1,4.1V112.1z"/>
			<path class="st3" d="M499.5,112.1h-10.3V93.6h3.1v15.9h7.2V112.1z"/>
			<path class="st3" d="M512.9,106.3h-9c0,1.2,0.4,2.2,1.1,2.8c0.7,0.7,1.7,1,3,1c1.4,0,2.7-0.4,3.9-1.3v2.4
				c-1.2,0.8-2.8,1.1-4.8,1.1c-1.9,0-3.5-0.6-4.6-1.8c-1.1-1.2-1.7-2.9-1.7-5.1c0-2.1,0.6-3.7,1.8-5c1.2-1.3,2.7-1.9,4.5-1.9
				c1.8,0,3.2,0.6,4.2,1.7c1,1.2,1.5,2.8,1.5,4.8V106.3z M510,104.2c0-1.1-0.3-1.9-0.8-2.5c-0.5-0.6-1.2-0.9-2.1-0.9
				c-0.9,0-1.6,0.3-2.2,0.9c-0.6,0.6-1,1.5-1.1,2.5H510z"/>
			<path class="st3" d="M517.2,96.1c-0.5,0-0.9-0.2-1.3-0.5c-0.3-0.3-0.5-0.7-0.5-1.2c0-0.5,0.2-0.9,0.5-1.2
				c0.3-0.3,0.8-0.5,1.3-0.5c0.5,0,0.9,0.2,1.3,0.5c0.4,0.3,0.5,0.7,0.5,1.2c0,0.5-0.2,0.9-0.5,1.2
				C518.2,95.9,517.7,96.1,517.2,96.1z M518.7,112.1h-3v-5.7v-7.6h3v5.7V112.1z"/>
			<path class="st3" d="M525.4,110.2L525.4,110.2l-0.1,1.9h-3V92.5h3v8.7h0.1c1-1.8,2.5-2.6,4.5-2.6c1.7,0,3,0.6,3.9,1.8
				c0.9,1.2,1.4,2.8,1.4,4.8c0,2.2-0.5,4-1.6,5.3c-1.1,1.3-2.5,2-4.3,2C527.6,112.4,526.3,111.7,525.4,110.2z M525.3,104.9v1.6
				c0,1,0.3,1.8,0.9,2.5c0.6,0.7,1.4,1,2.3,1c1.1,0,2-0.4,2.6-1.3c0.6-0.9,0.9-2.1,0.9-3.6c0-1.3-0.3-2.3-0.9-3.1
				c-0.6-0.7-1.4-1.1-2.4-1.1c-1.1,0-1.9,0.4-2.6,1.1C525.7,102.9,525.3,103.8,525.3,104.9z"/>
			<path class="st3" d="M550,112.1h-3v-7.5c0-2.5-0.9-3.7-2.6-3.7c-0.9,0-1.7,0.3-2.3,1c-0.6,0.7-0.9,1.5-0.9,2.6v7.5h-3V98.9h3v2.2
				h0.1c1-1.7,2.4-2.5,4.3-2.5c1.4,0,2.5,0.5,3.3,1.4c0.8,0.9,1.1,2.3,1.1,4.1V112.1z"/>
			<path class="st3" d="M555,96.1c-0.5,0-0.9-0.2-1.3-0.5c-0.3-0.3-0.5-0.7-0.5-1.2c0-0.5,0.2-0.9,0.5-1.2c0.3-0.3,0.8-0.5,1.3-0.5
				c0.5,0,0.9,0.2,1.3,0.5c0.4,0.3,0.5,0.7,0.5,1.2c0,0.5-0.2,0.9-0.5,1.2C555.9,95.9,555.5,96.1,555,96.1z M556.4,112.1h-3V98.9h3
				V112.1z"/>
			<path class="st3" d="M570,100.1l-7.1,9.6h7.1v2.3h-11.3V111l7.3-9.8h-6.6v-2.3H570V100.1z"/>
			<path class="st3" d="M397.2,143.9c-1.9,1.1-4.1,1.6-6.4,1.6c-2.7,0-5-0.9-6.7-2.6c-1.7-1.7-2.5-4-2.5-6.8c0-2.9,0.9-5.2,2.8-7.1
				c1.9-1.8,4.2-2.8,7.1-2.8c2.1,0,3.8,0.3,5.2,0.9v3.2c-1.4-0.9-3.1-1.4-5.1-1.4c-2,0-3.6,0.7-4.9,2c-1.3,1.3-1.9,3-1.9,5.1
				c0,2.1,0.5,3.8,1.6,5c1.1,1.2,2.6,1.8,4.4,1.8c1.3,0,2.4-0.2,3.3-0.7v-4.4h-3.9v-2.6h7V143.9z"/>
			<path class="st3" d="M408.6,134.8c-0.4-0.3-0.9-0.4-1.6-0.4c-0.9,0-1.6,0.4-2.2,1.2c-0.6,0.8-0.9,1.9-0.9,3.3v6.3h-3v-13.2h3v2.7
				h0.1c0.3-0.9,0.7-1.7,1.3-2.2c0.6-0.5,1.3-0.8,2-0.8c0.5,0,1,0.1,1.2,0.2V134.8z"/>
			<path class="st3" d="M421.1,145.1h-2.9v-2.1h-0.1c-0.9,1.6-2.3,2.4-4,2.4c-1.3,0-2.3-0.4-3.1-1.1c-0.7-0.7-1.1-1.6-1.1-2.8
				c0-2.5,1.4-4,4.3-4.4l3.9-0.6c0-1.9-0.9-2.8-2.7-2.8c-1.6,0-3,0.5-4.3,1.6v-2.6c1.4-0.8,3-1.2,4.8-1.2c3.3,0,5,1.6,5,4.9V145.1z
				 M418.2,138.6l-2.8,0.4c-0.9,0.1-1.5,0.3-1.9,0.6c-0.4,0.3-0.7,0.8-0.7,1.6c0,0.6,0.2,1,0.6,1.4c0.4,0.4,0.9,0.5,1.6,0.5
				c0.9,0,1.7-0.3,2.3-1c0.6-0.6,0.9-1.4,0.9-2.4V138.6z"/>
			<path class="st3" d="M437.1,145.1h-3v-2.2h-0.1c-1,1.7-2.5,2.6-4.5,2.6c-1.6,0-2.9-0.6-3.9-1.8c-1-1.2-1.5-2.8-1.5-4.8
				c0-2.2,0.5-3.9,1.6-5.3c1.1-1.3,2.5-2,4.3-2c1.8,0,3.1,0.7,3.9,2.1h0.1v-8.2h3V145.1z M434.1,139.1v-1.7c0-0.9-0.3-1.7-0.9-2.4
				c-0.6-0.7-1.4-1-2.3-1c-1.1,0-2,0.4-2.6,1.3c-0.6,0.8-1,2-1,3.5c0,1.3,0.3,2.4,0.9,3.2c0.6,0.8,1.4,1.2,2.5,1.2
				c1,0,1.9-0.4,2.5-1.1C433.8,141.2,434.1,140.2,434.1,139.1z"/>
			<path class="st3" d="M452.8,145.1h-3v-2.1h-0.1c-0.9,1.6-2.2,2.4-4.1,2.4c-3.1,0-4.7-1.9-4.7-5.6v-7.9h3v7.6
				c0,2.4,0.9,3.6,2.8,3.6c0.9,0,1.6-0.3,2.2-1c0.6-0.7,0.9-1.5,0.9-2.6v-7.6h3V145.1z"/>
			<path class="st3" d="M467.1,145.1h-2.9v-2.1h-0.1c-0.9,1.6-2.3,2.4-4,2.4c-1.3,0-2.3-0.4-3.1-1.1c-0.7-0.7-1.1-1.6-1.1-2.8
				c0-2.5,1.4-4,4.3-4.4l3.9-0.6c0-1.9-0.9-2.8-2.7-2.8c-1.6,0-3,0.5-4.3,1.6v-2.6c1.4-0.8,3-1.2,4.8-1.2c3.3,0,5,1.6,5,4.9V145.1z
				 M464.2,138.6l-2.8,0.4c-0.9,0.1-1.5,0.3-1.9,0.6c-0.4,0.3-0.7,0.8-0.7,1.6c0,0.6,0.2,1,0.6,1.4c0.4,0.4,0.9,0.5,1.6,0.5
				c0.9,0,1.7-0.3,2.3-1c0.6-0.6,0.9-1.4,0.9-2.4V138.6z"/>
			<path class="st3" d="M477.9,145c-0.6,0.3-1.4,0.4-2.3,0.4c-2.6,0-3.9-1.2-3.9-3.7v-7.5h-2.2v-2.4h2.2v-3.1l3-0.9v3.9h3.2v2.4
				h-3.2v6.6c0,0.8,0.1,1.3,0.4,1.7c0.3,0.3,0.8,0.5,1.4,0.5c0.5,0,0.9-0.1,1.3-0.4V145z"/>
			<path class="st3" d="M491.9,139.3h-9c0,1.2,0.4,2.2,1.1,2.8c0.7,0.7,1.7,1,3,1c1.4,0,2.7-0.4,3.9-1.3v2.4
				c-1.2,0.8-2.8,1.1-4.8,1.1c-1.9,0-3.5-0.6-4.6-1.8c-1.1-1.2-1.7-2.9-1.7-5.1c0-2.1,0.6-3.7,1.8-5c1.2-1.3,2.7-1.9,4.5-1.9
				c1.8,0,3.2,0.6,4.2,1.7c1,1.2,1.5,2.8,1.5,4.8V139.3z M489,137.2c0-1.1-0.3-1.9-0.8-2.5c-0.5-0.6-1.2-0.9-2.1-0.9
				c-0.9,0-1.6,0.3-2.2,0.9c-0.6,0.6-1,1.5-1.1,2.5H489z"/>
			<path class="st3" d="M502.5,144.4v-3.2c0.3,0.3,0.6,0.5,1,0.7c0.4,0.2,0.8,0.4,1.2,0.5c0.4,0.1,0.9,0.3,1.3,0.3
				c0.4,0.1,0.8,0.1,1.2,0.1c1.3,0,2.3-0.2,2.9-0.6c0.6-0.4,0.9-1.1,0.9-1.9c0-0.4-0.1-0.8-0.3-1.1c-0.2-0.3-0.5-0.6-0.9-0.9
				c-0.4-0.3-0.8-0.5-1.3-0.8c-0.5-0.2-1.1-0.5-1.6-0.8c-0.6-0.3-1.2-0.7-1.8-1c-0.5-0.3-1-0.7-1.4-1.1c-0.4-0.4-0.7-0.9-0.9-1.4
				c-0.2-0.5-0.3-1.1-0.3-1.8c0-0.9,0.2-1.6,0.6-2.3c0.4-0.6,0.9-1.2,1.6-1.6c0.6-0.4,1.4-0.7,2.2-0.9c0.8-0.2,1.7-0.3,2.5-0.3
				c1.9,0,3.4,0.2,4.2,0.7v3c-1-0.8-2.4-1.1-4.1-1.1c-0.5,0-0.9,0-1.4,0.1c-0.5,0.1-0.9,0.2-1.2,0.4c-0.4,0.2-0.6,0.5-0.9,0.8
				c-0.2,0.3-0.3,0.7-0.3,1.1c0,0.4,0.1,0.8,0.3,1.1c0.2,0.3,0.4,0.6,0.8,0.8c0.3,0.3,0.7,0.5,1.2,0.7c0.5,0.2,1,0.5,1.7,0.8
				c0.6,0.3,1.3,0.7,1.8,1.1c0.6,0.4,1.1,0.8,1.5,1.2c0.4,0.4,0.8,0.9,1,1.5c0.3,0.5,0.4,1.2,0.4,1.9c0,0.9-0.2,1.7-0.6,2.4
				c-0.4,0.6-0.9,1.2-1.5,1.6c-0.6,0.4-1.4,0.7-2.2,0.9c-0.8,0.2-1.7,0.3-2.6,0.3c-0.3,0-0.7,0-1.1-0.1c-0.5,0-0.9-0.1-1.4-0.2
				c-0.5-0.1-0.9-0.2-1.3-0.3C503.1,144.7,502.8,144.6,502.5,144.4z"/>
			<path class="st3" d="M527.2,144.5c-1.1,0.6-2.3,0.9-3.8,0.9c-2,0-3.5-0.6-4.8-1.8c-1.2-1.2-1.8-2.8-1.8-4.8
				c0-2.2,0.6-3.9,1.9-5.3c1.3-1.3,3-2,5.2-2c1.2,0,2.3,0.2,3.2,0.6v2.8c-0.9-0.7-1.9-1-2.9-1c-1.3,0-2.3,0.4-3.1,1.3
				c-0.8,0.9-1.2,2-1.2,3.4c0,1.4,0.4,2.5,1.1,3.2c0.8,0.8,1.8,1.2,3.1,1.2c1.1,0,2.1-0.4,3-1.2V144.5z"/>
			<path class="st3" d="M542.3,145.1h-3v-7.2c0-2.6-0.9-3.9-2.6-3.9c-0.9,0-1.6,0.4-2.2,1.1c-0.6,0.8-0.9,1.7-0.9,2.9v7.1h-3v-19.6
				h3v8.6h0.1c1-1.7,2.4-2.5,4.3-2.5c2.9,0,4.4,1.8,4.4,5.4V145.1z"/>
			<path class="st3" d="M552.1,145.5c-2,0-3.7-0.6-4.9-1.9c-1.2-1.2-1.8-2.9-1.8-4.9c0-2.2,0.6-4,1.9-5.2c1.3-1.2,3-1.9,5.1-1.9
				c2.1,0,3.7,0.6,4.8,1.8c1.2,1.2,1.7,2.9,1.7,5.1c0,2.1-0.6,3.8-1.9,5.1C555.9,144.8,554.2,145.5,552.1,145.5z M552.3,134
				c-1.2,0-2.1,0.4-2.8,1.2c-0.7,0.8-1,1.9-1,3.4c0,1.4,0.3,2.5,1,3.3c0.7,0.8,1.6,1.2,2.8,1.2c1.2,0,2.1-0.4,2.7-1.2
				c0.6-0.8,0.9-1.9,0.9-3.3c0-1.5-0.3-2.6-0.9-3.4C554.4,134.4,553.5,134,552.3,134z"/>
			<path class="st3" d="M568.3,145.5c-2,0-3.7-0.6-4.9-1.9c-1.2-1.2-1.8-2.9-1.8-4.9c0-2.2,0.6-4,1.9-5.2c1.3-1.2,3-1.9,5.1-1.9
				c2.1,0,3.7,0.6,4.8,1.8c1.2,1.2,1.7,2.9,1.7,5.1c0,2.1-0.6,3.8-1.9,5.1C572,144.8,570.4,145.5,568.3,145.5z M568.4,134
				c-1.2,0-2.1,0.4-2.8,1.2c-0.7,0.8-1,1.9-1,3.4c0,1.4,0.3,2.5,1,3.3c0.7,0.8,1.6,1.2,2.8,1.2c1.2,0,2.1-0.4,2.7-1.2
				c0.6-0.8,0.9-1.9,0.9-3.3c0-1.5-0.3-2.6-0.9-3.4C570.5,134.4,569.6,134,568.4,134z"/>
			<path class="st3" d="M581.5,145.1h-3v-8.4v-11.1h3v8.1V145.1z"/>
		</g>
	</g>
</g>
</svg>
